# File created by Blade
# Date/Time:  Thu Jan 15 17:55:17 2015
#---------------------------------------------------------
:version 1.10
:name HOM
:units
  mass 1.0
  length 1.000000
  angle deg
:documentation
     Acclaim Skeleton File
:root
   axis xyz
   order TX TY TZ RX RY RZ
   position 0.000000 0.000000 0.000000
   orientation 0 0 0
:bonedata
   begin
      id 1
      name Spine_dum
      direction 0.000000 1.000000 0.000000
      length 5.015652
      axis 0.0 0.0 0.0 xyz
   end
   begin
      id 2
      name LeftUpLeg_dum
      direction 1.000000 0.000000 0.000000
      length 4.275145
      axis 0.0 0.0 0.0 xyz
   end
   begin
      id 3
      name RightUpLeg_dum
      direction -1.000000 0.000000 0.000000
      length 4.275145
      axis 0.0 0.0 0.0 xyz
   end
   begin
      id 4
      name Spine
      direction 0.000000 1.000000 0.000000
      length 0.000000
      axis 0.0 0.0 0.0 xyz
      dof rx ry rz
   end
   begin
      id 5
      name Spine_dum1
      direction 0.000000 1.000000 0.000000
      length 15.980521
      axis 0.0 0.0 0.0 xyz
   end
   begin
      id 6
      name Spine_dum2
      direction 0.000000 1.000000 0.000000
      length 12.162712
      axis 0.0 0.0 0.0 xyz
   end
   begin
      id 7
      name Spine_dum3
      direction 0.000000 1.000000 0.000000
      length 12.162712
      axis 0.0 0.0 0.0 xyz
   end
   begin
      id 8
      name Head
      direction 0.000000 1.000000 0.000000
      length 4.527550
      axis 0.0 0.0 0.0 xyz
      dof rx ry rz
   end
   begin
      id 9
      name LeftShoulder
      direction 1.000000 0.000000 0.000000
      length 7.205867
      axis 0.0 0.0 -90.0 xyz
      dof rx ry rz
   end
   begin
      id 10
      name LeftArm
      direction 1.000000 0.000000 0.000000
      length 10.786708
      axis 0.0 0.0 -90.0 xyz
      dof rx ry rz
   end
   begin
      id 11
      name LeftForeArm
      direction 1.000000 0.000000 0.000000
      length 7.946034
      axis 0.0 0.0 -90.0 xyz
      dof rz ry rx
   end
   begin
      id 12
      name LeftHand
      direction 0.000000 0.000000 0.000000
      length 0.000000
      axis 0.0 0.0 -90.0 xyz
      dof rx ry rz
   end
   begin
      id 13
      name LeftHand_dum1
      direction 0.000000 0.000000 0.000000
      length 0.000000
      axis 0.0 0.0 -90.0 xyz
   end
   begin
      id 14
      name LeftHand_dum2
      direction 1.000000 0.000000 0.000000
      length 3.937000
      axis 0.0 0.0 -90.0 xyz
   end
   begin
      id 15
      name LeftHandThumb1
      direction 0.000000 0.000000 1.000000
      length 3.937000
      axis 0.0 0.0 -90.0 xyz
      dof rx ry rz
   end
   begin
      id 16
      name RightShoulder
      direction -1.000000 0.000000 0.000000
      length 7.205867
      axis 0.0 0.0 90.0 xyz
      dof rx ry rz
   end
   begin
      id 17
      name RightArm
      direction -1.000000 0.000000 0.000000
      length 10.786708
      axis 0.0 0.0 90.0 xyz
      dof rx ry rz
   end
   begin
      id 18
      name RightForeArm
      direction -1.000000 0.000000 0.000000
      length 7.946034
      axis 0.0 0.0 90.0 xyz
      dof rz ry rx
   end
   begin
      id 19
      name RightHand
      direction 0.000000 0.000000 0.000000
      length 0.000000
      axis 0.0 0.0 90.0 xyz
      dof rx ry rz
   end
   begin
      id 20
      name RightHand_dum1
      direction 0.000000 0.000000 0.000000
      length 0.000000
      axis 0.0 0.0 90.0 xyz
   end
   begin
      id 21
      name RightHand_dum2
      direction -1.000000 0.000000 0.000000
      length 3.937000
      axis 0.0 0.0 90.0 xyz
   end
   begin
      id 22
      name RightHandThumb1
      direction 0.000000 0.000000 1.000000
      length 3.937000
      axis 0.0 0.0 90.0 xyz
      dof rx ry rz
   end
   begin
      id 23
      name LeftUpLeg
      direction 0.000000 -1.000000 0.000000
      length 17.046659
      axis 0.0 0.0 0.0 xyz
      dof rx ry rz
   end
   begin
      id 24
      name LeftLeg
      direction 0.000000 -1.000000 0.000000
      length 17.458438
      axis 0.0 0.0 0.0 xyz
      dof rx ry rz
   end
   begin
      id 25
      name LeftFoot
      direction 0.000000 -0.258819 0.965926
      length 5.099406
      axis 15.0 0.0 0.0 xyz
      dof rx ry rz
   end
   begin
      id 26
      name LeftToeBase
      direction 0.000000 0.000000 1.000000
      length 2.952750
      axis 0.0 0.0 0.0 xyz
      dof rx ry rz
   end
   begin
      id 27
      name RightUpLeg
      direction 0.000000 -1.000000 0.000000
      length 17.046659
      axis 0.0 0.0 0.0 xyz
      dof rx ry rz
   end
   begin
      id 28
      name RightLeg
      direction 0.000000 -1.000000 0.000000
      length 17.458438
      axis 0.0 0.0 0.0 xyz
      dof rx ry rz
   end
   begin
      id 29
      name RightFoot
      direction 0.000000 -0.258819 0.965926
      length 5.099406
      axis 15.0 0.0 0.0 xyz
      dof rx ry rz
   end
   begin
      id 30
      name RightToeBase
      direction 0.000000 0.000000 1.000000
      length 2.952750
      axis 0.0 0.0 0.0 xyz
      dof rx ry rz
   end
:hierarchy
   begin
      root Spine_dum LeftUpLeg_dum RightUpLeg_dum
      Spine_dum Spine
      LeftUpLeg_dum LeftUpLeg
      RightUpLeg_dum RightUpLeg
      Spine Spine_dum1 Spine_dum2 Spine_dum3
      Spine_dum1 Head
      Spine_dum2 LeftShoulder
      Spine_dum3 RightShoulder
      LeftShoulder LeftArm
      LeftArm LeftForeArm
      LeftForeArm LeftHand
      LeftHand LeftHand_dum1 LeftHand_dum2
      LeftHand_dum1 LeftHandThumb1
      RightShoulder RightArm
      RightArm RightForeArm
      RightForeArm RightHand
      RightHand RightHand_dum1 RightHand_dum2
      RightHand_dum1 RightHandThumb1
      LeftUpLeg LeftLeg
      LeftLeg LeftFoot
      LeftFoot LeftToeBase
      RightUpLeg RightLeg
      RightLeg RightFoot
      RightFoot RightToeBase
   end

# File created by Blade
# Date/Time:  Thu Jan 15 17:55:09 2015
# Frame Rate: 120.000 fps
#------------------------------------------------------
:FULLY-SPECIFIED
:DEGREES
1462
root 4.992474 35.212976 -9.040823 2.279512 -1.730591 -1.878835
Spine -8.573216 -10.222335 1.291627
Head 3.506582 9.985529 16.776712
LeftShoulder -30.136149 -1.825214 15.673776
LeftArm 18.374037 -38.878973 -16.174307
LeftForeArm -0.000000 26.237799 3.100748
LeftHand 4.423831 -0.000000 -0.302230
LeftHandThumb1 -26.253704 33.147579 0.000000
RightShoulder 1.410955 26.144486 -12.752161
RightArm 9.396648 37.361147 18.691540
RightForeArm -0.000000 -52.421861 9.704412
RightHand 1.089116 0.000000 4.812880
RightHandThumb1 -24.326973 -32.862282 -0.000000
LeftUpLeg 0.268893 2.498629 12.827114
LeftLeg 12.377123 -0.000000 -0.000000
LeftFoot -27.224007 11.150632 -22.085785
LeftToeBase 22.326267 -0.000000 -0.000000
RightUpLeg 4.579841 -12.313954 -1.752236
RightLeg 0.163934 -0.000000 -0.000000
RightFoot -25.256684 -30.415532 13.291502
RightToeBase 27.553102 -0.000000 -0.000000
1463
root 4.901901 35.215136 -9.024555 2.226245 -1.668581 -1.899063
Spine -8.527062 -10.272179 1.230067
Head 3.682763 10.007251 16.810644
LeftShoulder -30.351690 -1.724705 15.700641
LeftArm 17.734020 -39.597671 -16.015372
LeftForeArm 0.000000 26.446356 2.609445
LeftHand 4.304628 -0.000000 -0.297554
LeftHandThumb1 -26.253704 33.147579 0.000000
RightShoulder 1.267248 26.139567 -12.827069
RightArm 8.370169 38.348529 18.251217
RightForeArm -0.000000 -52.249072 9.596017
RightHand 1.015473 -0.000000 4.853236
RightHandThumb1 -24.326973 -32.862282 -0.000000
LeftUpLeg 0.118102 2.322042 12.987754
LeftLeg 12.781804 -0.000000 -0.000000
LeftFoot -27.075526 11.272688 -22.131413
LeftToeBase 22.022149 -0.000000 -0.000000
RightUpLeg 4.710133 -12.357785 -1.590616
RightLeg 0.083777 -0.000000 -0.000000
RightFoot -25.264401 -30.536364 13.203224
RightToeBase 27.528437 -0.000000 -0.000000
1464
root 4.811333 35.217333 -9.014172 2.238660 -1.613141 -1.899246
Spine -8.536357 -10.270056 1.147610
Head 3.821094 9.974708 16.851826
LeftShoulder -30.570830 -1.641508 15.749598
LeftArm 17.129450 -40.150509 -15.827400
LeftForeArm -0.000000 26.502738 2.062137
LeftHand 4.282899 -0.000000 -0.404576
LeftHandThumb1 -26.253704 33.147579 0.000000
RightShoulder 1.061365 26.130060 -12.929571
RightArm 7.354846 39.308951 17.809361
RightForeArm 0.000000 -52.202646 9.505119
RightHand 0.824891 -0.000000 4.912917
RightHandThumb1 -24.326973 -32.862282 -0.000000
LeftUpLeg -0.125937 2.197485 13.126495
LeftLeg 13.228099 -0.000000 -0.000000
LeftFoot -26.898011 11.374076 -22.140996
LeftToeBase 21.735299 -0.000000 -0.000000
RightUpLeg 4.761290 -12.400066 -1.436655
RightLeg 0.006769 -0.000000 -0.000000
RightFoot -25.265480 -30.638123 13.038635
RightToeBase 27.672471 -0.000000 -0.000000
1465
root 4.718838 35.220908 -9.004997 2.222039 -1.577865 -1.926772
Spine -8.488763 -10.257684 1.090676
Head 3.921897 9.972655 16.860910
LeftShoulder -30.784588 -1.501731 15.739231
LeftArm 16.519838 -40.757137 -15.625150
LeftForeArm -0.000000 26.624438 1.544084
LeftHand 4.273039 -0.000000 -0.348270
LeftHandThumb1 -26.253704 33.147579 0.000000
RightShoulder 0.873402 26.199267 -13.035639
RightArm 6.261336 40.242699 17.305072
RightForeArm -0.000000 -52.036448 9.448787
RightHand 0.549095 -0.000000 4.962263
RightHandThumb1 -24.326973 -32.862282 -0.000000
LeftUpLeg -0.333267 2.082600 13.285541
LeftLeg 13.657642 -0.000000 -0.000000
LeftFoot -26.769860 11.579858 -22.160460
LeftToeBase 21.559016 -0.000000 -0.000000
RightUpLeg 4.848788 -12.402422 -1.257513
RightLeg -0.091621 -0.000000 0.000000
RightFoot -25.244842 -30.734720 12.946604
RightToeBase 27.671544 -0.000000 -0.000000
1466
root 4.621107 35.223974 -8.993105 2.185440 -1.526391 -1.932734
Spine -8.419370 -10.252427 0.982306
Head 3.999551 9.943949 16.893437
LeftShoulder -30.955632 -1.408054 15.846553
LeftArm 15.803176 -41.121273 -15.412255
LeftForeArm 0.000000 26.571430 1.097600
LeftHand 4.134131 -0.000000 -0.368940
LeftHandThumb1 -26.253704 33.147579 0.000000
RightShoulder 0.662112 26.355671 -13.136460
RightArm 5.110744 40.999291 16.736518
RightForeArm 0.000000 -51.875481 9.370509
RightHand 0.536844 -0.000000 4.960991
RightHandThumb1 -24.326973 -32.862282 -0.000000
LeftUpLeg -0.525181 1.943104 13.442277
LeftLeg 14.097814 -0.000000 -0.000000
LeftFoot -26.605398 11.661746 -22.272697
LeftToeBase 21.334152 -0.000000 -0.000000
RightUpLeg 4.971546 -12.428030 -1.096151
RightLeg -0.201830 -0.000000 0.000000
RightFoot -25.254429 -30.815355 12.852057
RightToeBase 27.649155 -0.000000 -0.000000
1467
root 4.526876 35.228805 -8.985936 2.163745 -1.485719 -1.938543
Spine -8.349327 -10.256283 0.893931
Head 4.064656 9.951662 16.922274
LeftShoulder -31.148852 -1.360070 15.906892
LeftArm 15.131025 -41.496074 -15.147259
LeftForeArm -0.000000 26.738714 0.596310
LeftHand 3.882339 -0.000000 -0.345316
LeftHandThumb1 -26.253704 33.147579 0.000000
RightShoulder 0.517705 26.416080 -13.217333
RightArm 3.921427 42.016490 16.124422
RightForeArm -0.000000 -51.924705 9.386441
RightHand 0.382324 0.000000 5.115206
RightHandThumb1 -24.326973 -32.862282 -0.000000
LeftUpLeg -0.741586 1.774692 13.589364
LeftLeg 14.553715 -0.000000 -0.000000
LeftFoot -26.407194 11.810684 -22.326174
LeftToeBase 21.068898 -0.000000 -0.000000
RightUpLeg 5.063126 -12.478496 -0.938297
RightLeg -0.299137 -0.000000 0.000000
RightFoot -25.242483 -30.867303 12.768987
RightToeBase 27.549596 -0.000000 -0.000000
1468
root 4.430328 35.233512 -8.983965 2.170058 -1.445339 -1.972715
Spine -8.291967 -10.248743 0.846194
Head 4.096263 9.912636 16.907648
LeftShoulder -31.295599 -1.260738 15.913584
LeftArm 14.405703 -41.877169 -14.830230
LeftForeArm -0.000000 27.002213 0.143185
LeftHand 3.661222 -0.000000 -0.320266
LeftHandThumb1 -26.253704 33.147579 0.000000
RightShoulder 0.283317 26.463555 -13.360225
RightArm 2.818133 42.706955 15.593919
RightForeArm 0.000000 -51.656662 9.400640
RightHand 0.187046 -0.000000 5.062308
RightHandThumb1 -24.326973 -32.862282 -0.000000
LeftUpLeg -1.012223 1.659200 13.763605
LeftLeg 15.036201 -0.000000 -0.000000
LeftFoot -26.237033 11.982705 -22.355715
LeftToeBase 20.841220 -0.000000 -0.000000
RightUpLeg 5.116511 -12.528352 -0.748418
RightLeg -0.383839 -0.000000 0.000000
RightFoot -25.219955 -30.872753 12.690517
RightToeBase 27.545196 -0.000000 -0.000000
